# xmcd
#
# Track frame offsets: 
#        150
#        17486
#        33141
#        48330
#        75983
#        96652
#        110650
#        137518
#
# Disc length: 2153 seconds
#
# Revision: 0
# Processed by: cddbd v1.5.2PL0 Copyright (c) Steve Scherf et al.
# Submitted via: ExactAudioCopyFreeDBPlugin 1.0
#
DISCID=59086708
DTITLE=Deathstorm - As Death Awakes
DYEAR=2013
DGENRE=Thrash Metal
TTITLE0=Awakening Of The Dead
TTITLE1=Red Blood Spillage
TTITLE2=Prepare For The Slaughter
TTITLE3=Await The Edged Blades
TTITLE4=Nihilistic Delusion
TTITLE5=Visions Of Death
TTITLE6=Nebelhexe
TTITLE7=Rest
EXTD=
EXTT0=
EXTT1=
EXTT2=
EXTT3=
EXTT4=
EXTT5=
EXTT6=
EXTT7=
PLAYORDER=
